<svg height="512pt" viewBox="0 0 512 512" width="512pt" xmlns="http://www.w3.org/2000/svg" xmlns:xlink="http://www.w3.org/1999/xlink"><linearGradient id="a" gradientUnits="userSpaceOnUse" x1="0" x2="512" y1="256" y2="256"><stop offset="0" stop-color="#00f38d"/><stop offset="1" stop-color="#009eff"/></linearGradient><path d="m512 256c0 141.386719-114.613281 256-256 256s-256-114.613281-256-256 114.613281-256 256-256 256 114.613281 256 256zm0 0" fill="url(#a)"/><g fill="#fff"><path d="m420.382812 353.0625-39.324218-5.671875-17.417969-35.050781-17.421875 35.050781-36.113281 5.210937-36.6875-5.296874-17.417969-35.046876-17.421875 35.046876-35.441406 5.117187-37.359375-5.394531-17.417969-35.078125-17.417969 35.078125-39.324218 5.675781 28.46875 27.578125-6.683594 38.707031 34.957031-18.261719 34.957031 18.261719-6.679687-38.707031 25.398437-24.609375 25.6875 24.867187-6.679687 38.679688 34.957031-18.25 34.953125 18.25-6.679687-38.679688 25.503906-24.6875 25.585937 24.769532-6.679687 38.683594 34.957031-18.25 34.953125 18.25-6.679688-38.683594zm0 0"/><path d="m168.445312 300.738281c11.128907-39.1875 47.394532-66.558593 88.183594-66.558593 40.527344 0 76.726563 27.144531 88.027344 66.011718l.417969 1.441406 27.058593-7.871093-.417968-1.4375c-7.097656-24.410157-22.199219-46.378907-42.519532-61.859375-8.019531-6.109375-16.714843-11.167969-25.882812-15.054688 14.519531-13.402344 22.796875-32.207031 22.796875-51.972656 0-39.003906-31.730469-70.742188-70.738281-70.742188-39.007813 0-70.742188 31.734376-70.742188 70.742188 0 20.1875 8.574219 39.261719 23.609375 52.710938-8.648437 3.828124-16.867187 8.710937-24.464843 14.535156-20.382813 15.625-35.453126 37.769531-42.4375 62.351562l-.410157 1.445313 27.105469 7.699219zm44.363282-137.300781c0-23.46875 19.09375-42.5625 42.5625-42.5625s42.5625 19.09375 42.5625 42.5625c0 23.472656-19.09375 42.566406-42.5625 42.566406-23.472656 0-42.5625-19.097656-42.5625-42.566406zm0 0"/></g></svg>